<svg width="41" height="43" viewBox="0 0 41 43" fill="none" xmlns="http://www.w3.org/2000/svg">
<path fill-rule="evenodd" clip-rule="evenodd" d="M39 23.5C39 33.717 30.7176 42 20.5 42C10.283 42 2 33.717 2 23.5C2 13.283 10.283 5 20.5 5C30.7176 5 39 13.283 39 23.5" fill="#2CB447"/>
<path fill-rule="evenodd" clip-rule="evenodd" d="M39 23.5C39 33.717 30.7176 42 20.5 42C10.283 42 2 33.717 2 23.5C2 13.283 10.283 5 20.5 5C30.7176 5 39 13.283 39 23.5Z" stroke="#2CB447" stroke-width="1.078"/>
<mask id="mask0_0_265" style="mask-type:luminance" maskUnits="userSpaceOnUse" x="2" y="2" width="37" height="37">
<path fill-rule="evenodd" clip-rule="evenodd" d="M2 20.5C2 30.717 10.283 39 20.5 39V39C30.717 39 39 30.717 39 20.5V20.5C39 10.283 30.717 2 20.5 2V2C10.283 2 2 10.283 2 20.5" fill="white"/>
</mask>
<g mask="url(#mask0_0_265)">
<path fill-rule="evenodd" clip-rule="evenodd" d="M2 20.5C2 30.717 10.283 39 20.5 39V39C30.717 39 39 30.717 39 20.5V20.5C39 10.283 30.717 2 20.5 2V2C10.283 2 2 10.283 2 20.5" fill="url(#paint0_linear_0_265)"/>
</g>
<path fill-rule="evenodd" clip-rule="evenodd" d="M39 20.5C39 30.717 30.7176 39 20.5 39C10.283 39 2 30.717 2 20.5C2 10.283 10.283 2 20.5 2C30.7176 2 39 10.283 39 20.5Z" stroke="#CBFBD3" stroke-width="2.554"/>
<mask id="mask1_0_265" style="mask-type:luminance" maskUnits="userSpaceOnUse" x="11" y="15" width="20" height="16">
<path fill-rule="evenodd" clip-rule="evenodd" d="M27.304 15.6207L19.377 23.3782L17.6326 20.1712C17.519 19.9651 17.3843 19.7656 17.2426 19.5953V19.5953C16.5686 18.781 15.5825 18.3145 14.5372 18.3145V18.3145C13.7028 18.3145 12.8917 18.618 12.254 19.1676V19.1676C10.7626 20.4532 10.5746 22.7371 11.8348 24.2582V24.2582L16.6061 30.019C16.6916 30.1206 16.7858 30.2186 16.8871 30.3088V30.3088C17.3878 30.7545 18.029 31 18.6925 31V31C19.4859 31 20.2407 30.6505 20.7619 30.0405V30.0405L30.4685 18.698C31.2034 17.8335 31.1729 16.5109 30.3976 15.6864V15.6864C29.9813 15.2431 29.4203 15 28.8183 15V15C28.2509 15 27.7133 15.2204 27.304 15.6207" fill="white"/>
</mask>
<g mask="url(#mask1_0_265)">
<path fill-rule="evenodd" clip-rule="evenodd" d="M27.304 15.6207L19.377 23.3782L17.6326 20.1712C17.519 19.9651 17.3843 19.7656 17.2426 19.5953V19.5953C16.5686 18.781 15.5825 18.3145 14.5372 18.3145V18.3145C13.7028 18.3145 12.8917 18.618 12.254 19.1676V19.1676C10.7626 20.4532 10.5746 22.7371 11.8348 24.2582V24.2582L16.6061 30.019C16.6916 30.1206 16.7858 30.2186 16.8871 30.3088V30.3088C17.3878 30.7545 18.029 31 18.6925 31V31C19.4859 31 20.2407 30.6505 20.7619 30.0405V30.0405L30.4685 18.698C31.2034 17.8335 31.1729 16.5109 30.3976 15.6864V15.6864C29.9813 15.2431 29.4203 15 28.8183 15V15C28.2509 15 27.7133 15.2204 27.304 15.6207" fill="url(#paint1_linear_0_265)"/>
</g>
<mask id="mask2_0_265" style="mask-type:luminance" maskUnits="userSpaceOnUse" x="11" y="14" width="20" height="16">
<path fill-rule="evenodd" clip-rule="evenodd" d="M27.304 14.6207L19.377 22.3782L17.6326 19.1712C17.519 18.9651 17.3843 18.7656 17.2426 18.5953V18.5953C16.5686 17.7816 15.5825 17.3151 14.5372 17.3151V17.3151C13.7028 17.3151 12.8917 17.618 12.254 18.1682V18.1682C10.7626 19.4532 10.5746 21.7365 11.8348 23.2582V23.2582L16.6061 29.019C16.6916 29.1206 16.7858 29.218 16.8871 29.3088V29.3088C17.3878 29.7545 18.029 30 18.6925 30V30C19.4859 30 20.2407 29.6505 20.7619 29.0405V29.0405L30.4685 17.698C31.2034 16.8335 31.1729 15.5109 30.3976 14.6864V14.6864C29.9813 14.2431 29.4203 14 28.8183 14V14C28.2509 14 27.7133 14.2204 27.304 14.6207" fill="white"/>
</mask>
<g mask="url(#mask2_0_265)">
<path fill-rule="evenodd" clip-rule="evenodd" d="M27.304 14.6207L19.377 22.3782L17.6326 19.1712C17.519 18.9651 17.3843 18.7656 17.2426 18.5953V18.5953C16.5686 17.7816 15.5825 17.3151 14.5372 17.3151V17.3151C13.7028 17.3151 12.8917 17.618 12.254 18.1682V18.1682C10.7626 19.4532 10.5746 21.7365 11.8348 23.2582V23.2582L16.6061 29.019C16.6916 29.1206 16.7858 29.218 16.8871 29.3088V29.3088C17.3878 29.7545 18.029 30 18.6925 30V30C19.4859 30 20.2407 29.6505 20.7619 29.0405V29.0405L30.4685 17.698C31.2034 16.8335 31.1729 15.5109 30.3976 14.6864V14.6864C29.9813 14.2431 29.4203 14 28.8183 14V14C28.2509 14 27.7133 14.2204 27.304 14.6207" fill="url(#paint2_linear_0_265)"/>
</g>
<mask id="mask3_0_265" style="mask-type:luminance" maskUnits="userSpaceOnUse" x="12" y="14" width="19" height="15">
<path fill-rule="evenodd" clip-rule="evenodd" d="M28.3314 14.4507L19.6967 22.949L17.5272 18.9377C17.4376 18.7738 17.3242 18.6015 17.2013 18.4529V18.4529C16.1501 17.1763 14.2899 17.0161 13.0451 18.0947V18.0947C11.8016 19.1734 11.6455 21.0822 12.6967 22.3588V22.3588L17.3135 27.9652L17.5308 28.2289C17.5972 28.3093 17.6708 28.3861 17.7504 28.4573V28.4573C18.6425 29.2564 19.9971 29.162 20.7752 28.2466V28.2466L30.6131 16.6841C31.1414 16.0586 31.1325 15.1073 30.5627 14.4982V14.4982C30.2528 14.1669 29.8385 14 29.4236 14V14C29.0307 14 28.6377 14.1498 28.3314 14.4507" fill="white"/>
</mask>
<g mask="url(#mask3_0_265)">
<path fill-rule="evenodd" clip-rule="evenodd" d="M28.3314 14.4507L19.6967 22.949L17.5272 18.9377C17.4376 18.7738 17.3242 18.6015 17.2013 18.4529V18.4529C16.1501 17.1763 14.2899 17.0161 13.0451 18.0947V18.0947C11.8016 19.1734 11.6455 21.0822 12.6967 22.3588V22.3588L17.3135 27.9652L17.5308 28.2289C17.5972 28.3093 17.6708 28.3861 17.7504 28.4573V28.4573C18.6425 29.2564 19.9971 29.162 20.7752 28.2466V28.2466L30.6131 16.6841C31.1414 16.0586 31.1325 15.1073 30.5627 14.4982V14.4982C30.2528 14.1669 29.8385 14 29.4236 14V14C29.0307 14 28.6377 14.1498 28.3314 14.4507" fill="url(#paint3_linear_0_265)"/>
</g>
<defs>
<linearGradient id="paint0_linear_0_265" x1="41.7616" y1="40.5552" x2="41.7616" y2="-1.96785" gradientUnits="userSpaceOnUse">
<stop stop-color="#BCFFF3"/>
<stop offset="1" stop-color="#2CB447"/>
</linearGradient>
<linearGradient id="paint1_linear_0_265" x1="38.2312" y1="30.2841" x2="38.2312" y2="2.71433" gradientUnits="userSpaceOnUse">
<stop stop-color="#179934"/>
<stop offset="1" stop-color="#67FF7C"/>
</linearGradient>
<linearGradient id="paint2_linear_0_265" x1="34.3315" y1="33.5572" x2="34.3315" y2="12.2269" gradientUnits="userSpaceOnUse">
<stop stop-color="white"/>
<stop offset="1" stop-color="#D8FFDD"/>
</linearGradient>
<linearGradient id="paint3_linear_0_265" x1="34.1645" y1="32.3346" x2="34.1645" y2="12.3379" gradientUnits="userSpaceOnUse">
<stop stop-color="white"/>
<stop offset="1" stop-color="white"/>
</linearGradient>
</defs>
</svg>
