<svg width="20" height="21" viewBox="0 0 20 21" fill="none" xmlns="http://www.w3.org/2000/svg">
<path fill-rule="evenodd" clip-rule="evenodd" d="M8.83812 0.497263L3.95741 5.68438L0.432521 9.42949C-0.516684 10.4387 0.19889 12.0952 1.58472 12.0952V12.0952H3.11481V17.4393C3.11481 18.9049 4.30339 20.0929 5.76836 20.0929V20.0929H14.2116C15.6772 20.0929 16.8652 18.9049 16.8652 17.4393V17.4393V12.0952H18.3959C19.7811 12.0952 20.4973 10.4387 19.5468 9.42949V9.42949L16.0226 5.68438L11.1412 0.497263C10.8297 0.165967 10.4097 0 9.99031 0V0C9.57029 0 9.15026 0.165967 8.83812 0.497263V0.497263ZM7.99041 17.7189H11.9902V11.9681H7.99041V17.7189Z" fill="white"/>
</svg>
