<svg width="20" height="21" viewBox="0 0 20 21" fill="none" xmlns="http://www.w3.org/2000/svg">
<path fill-rule="evenodd" clip-rule="evenodd" d="M9.1657 1.33155C9.16584 1.43275 9.16599 1.53395 9.166 1.63515C9.16601 1.73747 9.16586 1.83978 9.16571 1.9421C9.16538 2.17029 9.16504 2.3985 9.16648 2.6267C9.16869 2.9834 9.41945 3.2455 9.75795 3.24921C10.0966 3.2529 10.3558 2.99288 10.3576 2.63711C10.3611 1.96545 10.3612 1.29377 10.3591 0.622079C10.358 0.26285 10.1085 0.00398411 9.76862 4.39415e-05C9.42509 -0.00392826 9.1685 0.261825 9.16638 0.627621C9.16502 0.862262 9.16536 1.0969 9.1657 1.33155ZM4.0831 5.69667L4.08308 5.69666C4.00277 5.66388 3.89486 5.61983 3.81589 5.54517C3.33176 5.0875 2.86048 4.61609 2.3899 4.14432C2.15089 3.90477 2.15009 3.54231 2.3751 3.31042C2.60693 3.07144 2.97676 3.05783 3.22285 3.296C3.70934 3.76677 4.19059 4.24305 4.66806 4.72302C4.85052 4.90644 4.89268 5.13199 4.78796 5.37167C4.68596 5.60507 4.49581 5.71424 4.15782 5.7293C4.13855 5.71931 4.1127 5.70875 4.0831 5.69667ZM6.24237 12.18C5.76429 11.3943 5.4863 10.5468 5.49582 9.44439C5.48467 8.60683 5.74337 7.67935 6.47775 6.95875C7.72368 5.73614 9.20038 5.25454 10.918 5.74415C12.0621 6.07029 12.9947 6.70757 13.5348 7.79643C14.0593 8.85362 14.0401 9.96183 13.696 11.0706C13.4686 11.8035 13.0543 12.4417 12.615 13.0597C12.0877 13.8015 11.7344 14.6167 11.5178 15.495C11.492 15.6001 11.4491 15.6396 11.3425 15.6591C10.0414 15.8972 8.74117 16.1395 7.44152 16.3851C7.07973 16.4535 6.86443 16.7777 6.93177 17.1313C6.99443 17.4604 7.32374 17.6852 7.66445 17.6224C8.1502 17.5329 8.63576 17.4423 9.12131 17.3517C10.0199 17.184 10.9185 17.0164 11.8184 16.8557C12.3184 16.7665 12.5939 16.4931 12.6961 15.997C12.8579 15.2113 13.1485 14.4761 13.6238 13.82C13.7791 13.6057 13.9213 13.3816 14.0632 13.1578L14.0633 13.1578L14.1263 13.0586C14.8334 11.9471 15.2387 10.7483 15.1883 9.4144C15.1499 8.39992 14.894 7.46021 14.3042 6.61813C13.082 4.87318 10.403 3.73937 7.97306 4.58122C6.55934 5.07102 5.41387 5.88897 4.74859 7.25637C4.0779 8.63483 4.08177 10.0697 4.5438 11.5114C4.81058 12.3439 5.27872 13.0732 5.77442 13.7829C6.12298 14.282 6.39036 14.8161 6.57203 15.3965C6.68341 15.7523 7.03171 15.9325 7.3682 15.8231C7.70696 15.7129 7.87853 15.3711 7.76872 15.0127C7.58174 14.4024 7.32361 13.8257 6.96451 13.2948C6.7165 12.9281 6.47243 12.5581 6.24237 12.18ZM12.2159 18.0169C12.1793 17.7053 11.9066 17.4705 11.558 17.4739L11.542 17.4754C11.5214 17.4773 11.4893 17.4802 11.4577 17.486C10.3248 17.6946 9.19196 17.9032 8.05927 18.1129C7.68114 18.1829 7.44614 18.5005 7.51249 18.8479C7.58194 19.2114 7.91086 19.4225 8.2936 19.3504C8.49379 19.3127 8.69419 19.276 8.89458 19.2393L9.08039 19.2052C9.34079 19.1574 9.60124 19.1097 9.86168 19.0621C10.4773 18.9494 11.0929 18.8368 11.708 18.7216C12.0475 18.6581 12.2564 18.3611 12.2159 18.0169ZM17.5553 10.7331C17.6525 10.7325 17.7497 10.7318 17.8468 10.7318V10.7333C17.9334 10.7333 18.0199 10.7338 18.1065 10.7342C18.3238 10.7355 18.5412 10.7367 18.7583 10.7301C18.8727 10.7267 18.9947 10.7074 19.098 10.6611C19.3378 10.5536 19.4659 10.2735 19.4122 10.0211C19.3519 9.73716 19.1138 9.54669 18.7945 9.54441C18.1708 9.53993 17.547 9.54002 16.9233 9.5463C16.8201 9.54733 16.7092 9.57193 16.6158 9.61553C16.3738 9.72854 16.2513 9.99622 16.3049 10.255C16.3628 10.5342 16.5829 10.7217 16.8873 10.7299C17.1098 10.7359 17.3326 10.7345 17.5553 10.7331ZM1.55808 10.7294C1.45805 10.7294 1.35799 10.7303 1.25792 10.7311C1.02737 10.7331 0.796813 10.735 0.566634 10.7267C0.283102 10.7164 0.0632213 10.5186 0.0115186 10.258C-0.0411452 9.99253 0.0901619 9.71896 0.33615 9.60755C0.416523 9.57112 0.510191 9.54739 0.598028 9.54668C1.24309 9.54149 1.88829 9.53816 2.53329 9.54572C2.84572 9.54937 3.078 9.76096 3.12269 10.0516C3.1658 10.3323 3.0088 10.6002 2.73629 10.6932C2.65755 10.7201 2.56959 10.7287 2.48563 10.7298C2.2611 10.7328 2.03653 10.7323 1.81195 10.7318C1.72733 10.7316 1.64271 10.7314 1.55808 10.7314V10.7294ZM14.6682 5.38239C14.7779 5.61275 14.9676 5.71916 15.3016 5.72714C15.319 5.71835 15.3427 5.70911 15.3701 5.69845L15.3701 5.69845C15.4453 5.6692 15.5478 5.62931 15.6211 5.55902C16.1025 5.09812 16.5726 4.62533 17.0395 4.14966C17.2712 3.9136 17.2637 3.55636 17.0398 3.32793C16.8129 3.09645 16.4391 3.07832 16.2034 3.30774C15.7219 3.77627 15.2478 4.25259 14.7758 4.73069C14.5988 4.90986 14.563 5.16171 14.6682 5.38239ZM9.25342 21C8.84685 20.9975 8.58932 20.7658 8.54944 20.4435C8.51027 20.127 8.70676 19.8239 9.02204 19.7604C9.5809 19.6478 10.1421 19.5456 10.7049 19.4546C11.0312 19.4018 11.3187 19.6168 11.3944 19.9386C11.4649 20.2381 11.3056 20.5843 11.004 20.6552C10.5697 20.7572 10.1304 20.8378 9.72173 20.9127L9.7217 20.9127L9.72167 20.9127L9.72144 20.9128C9.55992 20.9424 9.40318 20.9711 9.25342 21ZM2.7459 16.3532C2.84792 16.5843 3.03833 16.6964 3.37431 16.7135C3.39409 16.7029 3.4203 16.6918 3.45014 16.6791L3.45033 16.679L3.45041 16.679C3.53095 16.6447 3.63786 16.5992 3.7164 16.524C4.09744 16.1592 4.46339 15.7784 4.82884 15.3976C5.06458 15.152 5.05653 14.7945 4.82253 14.5645C4.59521 14.3411 4.21475 14.3327 3.98359 14.5619C3.60127 14.9409 3.22461 15.3259 2.85299 15.7154C2.67862 15.8981 2.64384 16.1221 2.7459 16.3532ZM15.1005 14.3684C15.1233 14.3809 15.1521 14.3938 15.1842 14.4081C15.2673 14.4453 15.3723 14.4922 15.4513 14.5667C15.8044 14.8996 16.144 15.247 16.4834 15.5942L16.4834 15.5942L16.5399 15.652C16.7812 15.8987 16.7826 16.25 16.5535 16.4862C16.3207 16.7261 15.9513 16.7381 15.7052 16.4984C15.3267 16.1297 14.9536 15.7552 14.5859 15.3758C14.4053 15.1895 14.3695 14.9619 14.4757 14.7239C14.5801 14.49 14.7782 14.391 15.1005 14.3684Z" fill="white"/>
</svg>
