<svg width="20" height="20" viewBox="0 0 20 20" fill="none" xmlns="http://www.w3.org/2000/svg">
<path fill-rule="evenodd" clip-rule="evenodd" d="M15.2779 13.7057L19.6698 18.0995L19.6735 18.1022C20.1076 18.5364 20.1076 19.2403 19.6735 19.6744C19.2393 20.1085 18.5354 20.1085 18.1013 19.6744L13.7057 15.2779C10.1446 18.0106 5.07401 17.5114 2.11427 14.1365C-0.845475 10.7617 -0.678813 5.66933 2.49526 2.49526C5.66933 -0.678813 10.7617 -0.845475 14.1365 2.11427C17.5114 5.07401 18.0106 10.1446 15.2779 13.7057ZM8.52685 2.2382C5.05372 2.2382 2.2382 5.05372 2.2382 8.52685C2.24177 11.9985 5.0552 14.8119 8.52685 14.8155C12 14.8155 14.8155 12 14.8155 8.52685C14.8155 5.05372 12 2.2382 8.52685 2.2382Z" fill="#3470F2"/>
</svg>
