<svg width="20" height="17" viewBox="0 0 20 17" fill="none" xmlns="http://www.w3.org/2000/svg">
<path d="M19.7905 8.36286L12.6479 15.5055C12.4436 15.71 12.1361 15.7713 11.8691 15.6606C11.602 15.55 11.428 15.2892 11.4282 15.0002V11.4494C6.33017 11.7387 2.83473 15.0448 1.8535 16.0921V16.0921C1.53748 16.4296 1.04061 16.5263 0.621086 16.332C0.201562 16.1376 -0.0459689 15.6961 0.0071236 15.2368C0.338365 12.3565 1.916 9.58604 4.44986 7.4361C6.55427 5.65043 9.11223 4.51742 11.4282 4.31922V0.714849C11.428 0.425781 11.602 0.165075 11.8691 0.0544227C12.1361 -0.0562297 12.4436 0.00498997 12.6479 0.209506L19.7905 7.35217C19.9246 7.48614 20 7.66794 20 7.85751C20 8.04709 19.9246 8.22888 19.7905 8.36286Z" fill="white"/>
</svg>
