<svg width="17" height="14" viewBox="0 0 17 14" fill="none" xmlns="http://www.w3.org/2000/svg">
<path fill-rule="evenodd" clip-rule="evenodd" d="M9.36547 5.32967C9.50135 5.42777 9.67022 5.46729 9.83494 5.43954C9.99966 5.4118 10.1467 5.31906 10.2438 5.18173L11.6604 3.18369H13.8514V4.45473C13.8512 4.71226 14.0047 4.94451 14.2401 5.04309C14.4755 5.14166 14.7464 5.08712 14.9265 4.90493L16.8153 2.99598C16.9336 2.87663 17 2.71467 17 2.54579C17 2.3769 16.9336 2.21494 16.8153 2.09559L14.9265 0.186642C14.7464 0.00444539 14.4755 -0.0500932 14.2401 0.0484834C14.0047 0.14706 13.8512 0.379314 13.8514 0.636836V1.90947H11.6573C11.2511 1.90997 10.8702 2.1084 10.6341 2.44238L9.21987 4.44042C9.12223 4.57776 9.0827 4.74874 9.11002 4.91559C9.13734 5.08244 9.22926 5.23143 9.36547 5.32967ZM16.8153 11.004C16.9336 11.1234 17 11.2853 17 11.4542C17 11.6231 16.9336 11.7851 16.8153 11.9044L14.9265 13.8134C14.7464 13.9956 14.4755 14.0501 14.2401 13.9515C14.0047 13.8529 13.8512 13.6207 13.8514 13.3632V12.0905H11.6573C11.2511 12.09 10.8702 11.8916 10.6341 11.5576L4.71264 3.1821H0.629611C0.281887 3.1821 0 2.89721 0 2.54578C0 2.19436 0.281887 1.90947 0.629611 1.90947H4.71264C5.11876 1.90997 5.4997 2.1084 5.73576 2.44238L11.6573 10.8179H13.8514V9.54527C13.8512 9.28774 14.0047 9.05549 14.2401 8.95691C14.4755 8.85834 14.7464 8.91288 14.9265 9.09507L16.8153 11.004ZM6.53495 8.56046C6.69967 8.53271 6.86854 8.57223 7.00443 8.67033C7.14039 8.76881 7.23199 8.91792 7.25901 9.08475C7.28603 9.25159 7.24625 9.42243 7.14845 9.55958L5.73576 11.5576C5.4997 11.8916 5.11876 12.09 4.71264 12.0905H0.629611C0.281887 12.0905 0 11.8056 0 11.4542C0 11.1028 0.281887 10.8179 0.629611 10.8179H4.71264L6.12612 8.81827C6.22317 8.68094 6.37024 8.5882 6.53495 8.56046Z" fill="white"/>
</svg>
