<svg width="24" height="24" viewBox="0 0 24 24" fill="none" xmlns="http://www.w3.org/2000/svg">
<path fill-rule="evenodd" clip-rule="evenodd" d="M0 12C0 5.37258 5.37258 0 12 0C18.6245 0.00699561 23.993 5.37548 24 12C24 18.6274 18.6274 24 12 24C5.37258 24 0 18.6274 0 12ZM16.5844 15.9314C16.6698 15.6126 16.5787 15.2726 16.3454 15.0392L13.305 12L16.3454 8.96077C16.5787 8.72745 16.6698 8.38737 16.5844 8.06865C16.499 7.74993 16.2501 7.50097 15.9314 7.41557C15.6126 7.33017 15.2726 7.42129 15.0392 7.65462L12 10.695L8.96077 7.65462C8.60008 7.29393 8.0153 7.29393 7.65462 7.65462C7.29393 8.0153 7.29393 8.60008 7.65462 8.96077L10.695 12L7.65462 15.0392C7.42129 15.2726 7.33017 15.6126 7.41557 15.9314C7.50097 16.2501 7.74993 16.499 8.06865 16.5844C8.38737 16.6698 8.72745 16.5787 8.96077 16.3454L12 13.305L15.0392 16.3454C15.2726 16.5787 15.6126 16.6698 15.9314 16.5844C16.2501 16.499 16.499 16.2501 16.5844 15.9314Z" fill="#F25A5A"/>
</svg>
