<svg width="26" height="24" viewBox="0 0 26 24" fill="none" xmlns="http://www.w3.org/2000/svg">
<path fill-rule="evenodd" clip-rule="evenodd" d="M1.57665 5.26888L5.26888 1.57665C5.5022 1.34334 5.59332 1.00327 5.50792 0.684553C5.42252 0.365837 5.17357 0.116891 4.85485 0.0314909C4.53614 -0.0539089 4.19607 0.0372116 3.96275 0.270528L0.270528 3.96275C0.0372116 4.19607 -0.0539089 4.53614 0.0314909 4.85485C0.116891 5.17357 0.365837 5.42252 0.684553 5.50792C1.00327 5.59332 1.34334 5.5022 1.57665 5.26888ZM21.8839 0.270528L25.5761 3.96275C25.8094 4.19607 25.9006 4.53614 25.8152 4.85485C25.7298 5.17357 25.4808 5.42252 25.1621 5.50792C24.8434 5.59332 24.5033 5.5022 24.27 5.26888L20.5778 1.57665C20.2171 1.21598 20.2171 0.631205 20.5778 0.270528C20.9384 -0.090148 21.5232 -0.090148 21.8839 0.270528ZM24 12.9233C24 19.0408 19.0408 24 12.9233 24C6.80584 24 1.84665 19.0408 1.84665 12.9233C1.84665 6.80584 6.80584 1.84665 12.9233 1.84665C19.0379 1.85364 23.993 6.80874 24 12.9233ZM19.3847 12.0003C19.8945 12.0003 20.3078 12.4135 20.3078 12.9233C20.3078 13.4331 19.8945 13.8464 19.3847 13.8464H12.9233C12.4135 13.8464 12.0003 13.4331 12.0003 12.9233V6.46193C12.0003 5.95214 12.4135 5.53887 12.9233 5.53887C13.4331 5.53887 13.8464 5.95214 13.8464 6.46193V12.0003H19.3847Z" fill="#192FDA"/>
</svg>
