<svg width="36" height="38" viewBox="0 0 36 38" fill="none" xmlns="http://www.w3.org/2000/svg">
<rect y="2.44444" width="35.5556" height="35.5556" rx="10" fill="#0B338A"/>
<rect width="35.5556" height="35.5556" rx="10" fill="#3470F2"/>
<path fill-rule="evenodd" clip-rule="evenodd" d="M17.9617 17.0928C17.7769 17.0114 17.578 16.98 17.3753 16.9802C16.4996 16.9812 15.7611 17.697 15.7586 18.5765C15.7567 19.2711 16.08 19.7866 16.71 20.0869C17.3039 20.3699 18.0078 20.2585 18.4865 19.7984C18.9887 19.3157 19.1249 18.7276 18.9108 18.0646C18.9091 18.0594 18.9074 18.0543 18.9058 18.0493C18.8712 17.9432 18.8463 17.8666 18.9492 17.7645C20.2328 16.4916 21.5104 15.2126 22.7872 13.9328C22.8616 13.8582 22.9263 13.8389 23.0321 13.8628C23.2937 13.922 23.5561 13.9776 23.8186 14.0331C24.1304 14.0992 24.4423 14.1653 24.7528 14.2373C24.9028 14.2721 25.0006 14.2523 25.1115 14.1401C25.7234 13.5212 26.3385 12.9056 26.9537 12.29C27.2462 11.9973 27.5387 11.7045 27.8308 11.4114C27.8436 11.3986 27.857 11.3861 27.8704 11.3735C27.9503 11.2986 28.0319 11.2222 27.9875 11.0863C27.946 10.9594 27.8393 10.9384 27.7356 10.918C27.7209 10.9151 27.7062 10.9123 27.6918 10.9091C27.6467 10.8992 27.6017 10.8892 27.5566 10.8793C26.9446 10.7445 26.3325 10.6097 25.7186 10.4844C25.5927 10.4586 25.5402 10.4101 25.5144 10.2843C25.4149 9.8006 25.3101 9.31804 25.2052 8.8355C25.167 8.65967 25.1288 8.48383 25.0908 8.30795C25.0876 8.29305 25.0847 8.27795 25.0818 8.26284C25.0616 8.15803 25.0414 8.05281 24.9161 8.01205C24.7831 7.96875 24.7033 8.04999 24.6236 8.1311C24.617 8.13778 24.6104 8.14445 24.6039 8.15106C24.445 8.31019 24.2862 8.46933 24.1274 8.62848C23.369 9.38843 22.6106 10.1484 21.8497 10.9059C21.7597 10.9956 21.7284 11.0729 21.7592 11.2057C21.8352 11.5339 21.905 11.8634 21.9748 12.193C22.0283 12.4454 22.0818 12.6979 22.1381 12.9497C22.1611 13.0525 22.1502 13.1205 22.0732 13.1972C20.7868 14.4775 19.5024 15.7599 18.2215 17.0458C18.135 17.1327 18.0688 17.14 17.9617 17.0928ZM8 18.1738C8.03318 17.9809 8.05336 17.7863 8.07355 17.5917C8.09716 17.3643 8.12077 17.1367 8.16518 16.9113C8.71704 14.1105 10.2137 11.9665 12.6569 10.5019C14.3949 9.45998 16.2937 9.06748 18.3087 9.25009C19.2705 9.33725 20.1957 9.57964 21.0863 9.95746C21.2501 10.027 21.2307 10.0898 21.1156 10.1662C20.6803 10.4552 20.6128 10.8276 20.7736 11.3125C20.8599 11.5729 20.9111 11.8448 20.9623 12.1169C20.9914 12.2715 21.0205 12.4261 21.0561 12.5787C21.081 12.6857 21.0616 12.7529 20.984 12.825C20.836 12.9627 20.6889 13.1027 20.5558 13.2545C20.4599 13.3639 20.3835 13.3557 20.2625 13.2908C16.8175 11.4462 12.6001 13.2677 11.5692 17.042C10.6365 20.4569 12.9175 23.9896 16.4188 24.5528C19.6608 25.0743 22.6884 22.976 23.3226 19.7506C23.5952 18.3641 23.3957 17.0336 22.7304 15.7831C22.6456 15.6236 22.6859 15.5513 22.7835 15.4172C23.099 14.984 23.4685 14.8939 23.9717 15.0713C24.2222 15.1596 24.4863 15.2087 24.7507 15.2578C24.8993 15.2854 25.0479 15.313 25.1943 15.3476C25.332 15.3802 25.425 15.3517 25.5156 15.2453C25.6093 15.1352 25.7092 15.0304 25.8163 14.918C25.8639 14.868 25.9129 14.8166 25.9634 14.7626C26.2094 15.2682 26.3695 15.7595 26.4974 16.26C27.8188 21.4305 24.5821 26.6639 19.3708 27.7887C14.2642 28.891 9.21357 25.568 8.18976 20.4296C8.11358 20.0474 8.05698 19.6614 8.03831 19.2708C8.03578 19.218 8.02496 19.1656 8.01413 19.1132L8.01413 19.1132C8.00915 19.0891 8.00417 19.065 8 19.0409V18.1738ZM21.939 16.4273C22.2089 16.9283 22.3632 17.4289 22.4338 17.9518C22.7931 20.6131 21.1432 22.983 18.5284 23.5727C15.7324 24.2031 12.8827 22.2114 12.5257 19.3772C12.1849 16.6725 13.9055 14.2899 16.5894 13.7775C17.6195 13.5808 18.6201 13.7187 19.5794 14.1493C19.7214 14.2131 19.7308 14.2556 19.6176 14.3661C19.0846 14.8864 18.5577 15.4131 18.0327 15.9415C17.953 16.0219 17.8782 16.0422 17.7648 16.0279C16.3008 15.8429 14.9665 16.9434 14.8039 18.4636C14.6551 19.8555 15.7626 21.189 17.1649 21.3479C18.9146 21.546 20.3611 20.0445 20.1453 18.3844C20.1358 18.3115 20.1349 18.2465 20.1953 18.1859C20.6409 17.7388 21.085 17.2901 21.5376 16.8327L21.5377 16.8327L21.939 16.4273Z" fill="url(#paint0_linear_0_395)"/>
<defs>
<linearGradient id="paint0_linear_0_395" x1="28.9931" y1="26.223" x2="28.9931" y2="4.23709" gradientUnits="userSpaceOnUse">
<stop stop-color="#B1F0E8"/>
<stop offset="1" stop-color="#F6FFEB"/>
</linearGradient>
</defs>
</svg>
