<svg width="36" height="38" viewBox="0 0 36 38" fill="none" xmlns="http://www.w3.org/2000/svg">
<rect y="2.44444" width="35.5556" height="35.5556" rx="10" fill="#0B338A"/>
<rect width="35.5556" height="35.5556" rx="10" fill="#3470F2"/>
<path fill-rule="evenodd" clip-rule="evenodd" d="M16.4578 8.23352L11.5771 13.4206L8.05221 17.1657C7.10301 18.175 7.81858 19.8314 9.20441 19.8314V19.8314H10.7345V25.1756C10.7345 26.6412 11.9231 27.8291 13.3881 27.8291V27.8291H21.8313C23.2969 27.8291 24.4849 26.6412 24.4849 25.1756V25.1756V19.8314H26.0156C27.4008 19.8314 28.117 18.175 27.1665 17.1657V17.1657L23.6423 13.4206L18.7609 8.23352C18.4494 7.90222 18.0294 7.73626 17.61 7.73626V7.73626C17.19 7.73626 16.77 7.90222 16.4578 8.23352V8.23352ZM15.6101 25.4552H19.6099V19.7044H15.6101V25.4552Z" fill="url(#paint0_linear_0_404)"/>
<defs>
<linearGradient id="paint0_linear_0_404" x1="28.5918" y1="26.0439" x2="28.5918" y2="3.95587" gradientUnits="userSpaceOnUse">
<stop stop-color="#B1F0E8"/>
<stop offset="1" stop-color="#F6FFEB"/>
</linearGradient>
</defs>
</svg>
