<svg width="164" height="43" viewBox="0 0 164 43" fill="none" xmlns="http://www.w3.org/2000/svg">
<path fill-rule="evenodd" clip-rule="evenodd" d="M14.7314 21.6373C15.89 21.6373 17.0039 21.3841 18.0728 20.8765C19.1407 20.3697 20.0017 19.6812 20.6537 18.8119C21.3057 17.9426 21.6316 17.001 21.6316 15.9865C21.6316 14.2121 20.9795 12.7357 19.6755 11.5584C18.3718 10.3815 16.8503 9.79255 15.1118 9.79255C14.0248 9.79255 12.9738 10.064 11.9602 10.6075L12.1775 21.1482C13.0102 21.4742 13.8617 21.6373 14.7314 21.6373M23.2618 2.51184C26.0506 3.85215 28.2874 5.69969 29.9717 8.05375C31.6561 10.4089 32.4983 13.0525 32.4983 15.9865C32.4983 18.7762 31.7556 21.3477 30.2709 23.7019C28.7851 26.0569 26.7474 27.9222 24.1581 29.2982C21.568 30.6753 18.7333 31.3628 15.6551 31.3628C14.6769 31.3628 13.5901 31.2729 12.3951 31.0914L12.6668 42.0124H1.79972L0.713303 4.25047C5.63888 1.75108 10.1674 0.501389 14.2967 0.501389C17.4834 0.501389 20.4719 1.17207 23.2618 2.51184" fill="#6E21FF"/>
<path fill-rule="evenodd" clip-rule="evenodd" d="M62.9789 12.9982V41.7406H52.6557V39.0783C51.7496 40.1294 50.5908 40.9528 49.1782 41.5505C47.7656 42.1482 46.2441 42.447 44.6142 42.447C40.8829 42.447 38.0752 41.2065 36.1923 38.7253C34.3086 36.2445 33.4028 32.6125 33.4757 27.8312L33.6388 12.8896H43.6905L43.6363 27.2879C43.6363 28.8093 44.0073 29.9774 44.7498 30.7924C45.492 31.6075 46.5515 32.0149 47.9284 32.0149C49.4133 32.0149 50.5816 31.4266 51.4331 30.2492C52.2836 29.0726 52.7097 27.5782 52.7097 25.7666V25.8209L52.7642 12.9982H62.9789Z" fill="#0039FF"/>
<path fill-rule="evenodd" clip-rule="evenodd" d="M90.0905 42.0124H64.9338L64.6626 34.2969L75.4203 21.2568H65.4773V12.8895H88.6237L89.6016 21.2568L79.6042 33.5363L89.4385 33.0472L90.0905 42.0124Z" fill="#3264F7"/>
<path fill-rule="evenodd" clip-rule="evenodd" d="M116.551 42.0124H91.3945L91.1228 34.2969L101.881 21.2568H91.938V12.8895H115.084L116.062 21.2568L106.065 33.5363L115.899 33.0472L116.551 42.0124Z" fill="#3264F7"/>
<path fill-rule="evenodd" clip-rule="evenodd" d="M128.505 42.447C125.208 42.447 122.546 41.379 120.517 39.2414C118.488 37.1046 117.493 34.0983 117.529 30.2219L117.638 3.48987L127.907 0.447006L127.961 27.1792C127.961 28.665 128.359 29.7601 129.157 30.4663C129.953 31.1727 130.876 31.5259 131.928 31.5259C132.688 31.5259 133.304 31.3628 133.775 31.0368L136.166 40.654C133.449 41.8495 130.895 42.447 128.505 42.447" fill="#5E6AFF"/>
<mask id="mask0_0_28" style="mask-type:luminance" maskUnits="userSpaceOnUse" x="134" y="12" width="30" height="31">
<path fill-rule="evenodd" clip-rule="evenodd" d="M134.861 12.8352H163.767V42.3926H134.861V12.8352Z" fill="white"/>
</mask>
<g mask="url(#mask0_0_28)">
<path fill-rule="evenodd" clip-rule="evenodd" d="M144.533 22.9412L153.715 22.9957C153.57 21.9455 153.145 21.1304 152.438 20.5505C151.732 19.9715 150.925 19.6455 150.021 19.5725C147.34 19.3552 145.511 20.4784 144.533 22.9412M160.018 16.8014C162.517 19.446 163.767 23.0499 163.767 27.6139C163.767 28.3747 163.748 28.9546 163.713 29.3525L144.478 29.57C144.913 30.7653 145.52 31.7526 146.299 32.5312C147.077 33.3104 147.992 33.7359 149.043 33.808C151.94 34.0253 154.041 33.1747 155.345 31.2543L163.115 33.482C162.644 35.1849 161.738 36.7148 160.398 38.0732C159.058 39.4315 157.455 40.4909 155.59 41.2518C153.724 42.0124 151.795 42.3926 149.803 42.3926C149.332 42.3926 148.97 42.374 148.717 42.3384C146.217 42.1567 143.908 41.3424 141.789 39.8934C139.67 38.4451 137.986 36.5434 136.736 34.1884C135.486 31.8342 134.861 29.2627 134.861 26.473C134.861 25.9295 134.879 25.5136 134.916 25.2233C135.06 22.8326 135.794 20.6956 137.117 18.8119C138.438 16.9288 140.177 15.4618 142.332 14.4108C144.487 13.3606 146.869 12.8352 149.477 12.8352C154.005 12.8352 157.519 14.1578 160.018 16.8014" fill="#0039FF"/>
</g>
</svg>
