<svg width="98" height="100" viewBox="0 0 98 100" fill="none" xmlns="http://www.w3.org/2000/svg">
<path fill-rule="evenodd" clip-rule="evenodd" d="M86.5774 14.6028C87.5104 15.6065 88.4432 16.6102 89.3763 17.6139C89.8652 18.5403 90.401 19.4455 90.8354 20.3969C93.0943 25.3448 92.1143 30.4887 88.3245 33.6764C86.6389 35.0939 84.7449 36.0281 82.5213 36.2919C80.9578 36.4773 80.064 37.5565 80.4386 38.7395C80.6625 39.4466 81.0114 40.1043 81.6031 40.6352C86.4436 44.9768 91.2672 49.3377 96.0901 53.6985C97.3605 54.8473 97.4137 56.1756 96.1643 57.3434C91.3846 61.8115 86.5791 66.2523 81.787 70.7073C81.2449 71.2113 80.6114 71.5271 79.9001 71.6915C77.2963 72.2934 75.1471 70.8978 74.563 68.232C73.6419 64.0311 70.6037 61.967 66.5665 62.9579C62.6828 63.9111 60.0565 66.3755 58.8434 70.1803C57.6016 74.0746 59.4471 77.3148 63.3833 78.4342C64.1438 78.6504 64.883 78.8971 65.4747 79.4667C67.304 81.2269 67.3004 84.1427 65.3639 85.9627C60.6712 90.3734 55.9424 94.746 51.222 99.1273C49.8278 100.422 48.4665 100.266 47.3171 98.7261C46.6417 97.8212 45.9474 96.9302 45.2534 96.0393C41.9944 91.8539 38.7274 87.6751 35.4761 83.4837C34.8204 82.6384 34.1142 81.8376 32.9355 82.1196C31.8248 82.3852 31.4562 83.326 31.2865 84.3662C31.2041 84.8711 31.0785 85.3733 30.9254 85.8617C30.2469 88.0258 28.9758 89.7835 27.1033 91.046C23.5198 93.4619 19.7743 93.2809 15.9593 91.621C14.7332 91.0874 13.7339 90.1942 12.5711 89.5645C11.6381 88.5605 10.7053 87.557 9.77224 86.5533C9.17347 85.263 8.35539 84.09 7.87115 82.7323C6.21506 78.0897 7.30805 73.4519 10.8218 70.4918C12.535 69.0483 14.4647 68.1177 16.726 67.8608C18.2013 67.6931 19.0761 66.5813 18.7104 65.4294C18.4857 64.7225 18.1382 64.0639 17.5465 63.5334C12.7061 59.1916 7.88289 54.8309 3.05928 50.4705C1.78776 49.3213 1.73171 47.9946 2.98264 46.8254C7.76216 42.3571 12.5672 37.9161 17.3604 33.4626C18.1517 32.7274 19.1009 32.3925 20.1602 32.3572C22.5006 32.2795 24.0681 33.5834 24.6046 36.0336C25.4853 40.0553 28.4909 42.1398 32.3793 41.2488C36.4406 40.3185 39.1618 37.7878 40.3585 33.7874C41.4824 30.0306 39.6281 26.8248 35.8625 25.7555C35.6979 25.7087 35.5329 25.6633 35.3694 25.6128C32.2543 24.6499 31.2043 20.6933 33.5775 18.432C38.4133 13.8244 43.3321 9.30383 48.2359 4.76797C49.2822 3.80015 50.6846 3.98335 51.6387 5.20171C54.6984 9.10822 57.7272 13.0389 60.7731 16.9563C61.9073 18.415 63.0424 19.8737 64.204 21.3105C64.7113 21.938 65.418 22.2517 66.2145 22.0528C67.0432 21.8457 67.5208 21.2192 67.7271 20.4009C67.8859 19.7709 67.9956 19.1276 68.1712 18.5025C68.8074 16.2407 70.1137 14.4256 72.0454 13.1208C75.5111 10.7798 79.1629 10.8684 82.9065 12.4244C84.2397 12.9784 85.3355 13.9086 86.5774 14.6028" fill="#07025D"/>
<path fill-rule="evenodd" clip-rule="evenodd" d="M84.503 10.454C85.436 11.4578 86.3688 12.4615 87.3019 13.4652C87.7908 14.3916 88.3266 15.2967 88.761 16.2481C91.0199 21.196 90.0399 26.3399 86.2501 29.5276C84.5646 30.9451 82.6706 31.8793 80.4469 32.1431C78.8834 32.3285 77.9896 33.4078 78.3642 34.5907C78.5882 35.2978 78.9371 35.9555 79.5287 36.4865C84.3692 40.828 89.1928 45.1889 94.0157 49.5497C95.2862 50.6985 95.3393 52.0268 94.0899 53.1946C89.3102 57.6627 84.5048 62.1035 79.7126 66.5585C79.1705 67.0625 78.537 67.3784 77.8257 67.5427C75.2219 68.1446 73.0727 66.749 72.4886 64.0833C71.5675 59.8823 68.5294 57.8182 64.4921 58.8091C60.6085 59.7623 57.9821 62.2267 56.7691 66.0315C55.5272 69.9259 57.3727 73.166 61.3089 74.2854C62.0694 74.5016 62.8086 74.7484 63.4003 75.3179C65.2296 77.0781 65.226 79.994 63.2895 81.814C58.5968 86.2247 53.868 90.5973 49.1477 94.9785C47.7534 96.2731 46.3922 96.1175 45.2427 94.5773C44.5673 93.6724 43.873 92.7815 43.179 91.8905C39.92 87.7051 36.653 83.5263 33.4018 79.3349C32.7461 78.4896 32.0398 77.6888 30.8611 77.9708C29.7504 78.2364 29.3818 79.1772 29.2121 80.2175C29.1297 80.7223 29.0041 81.2245 28.8511 81.713C28.1725 83.877 26.9015 85.6348 25.0289 86.8972C21.4454 89.3131 17.6999 89.1321 13.8849 87.4723C12.6588 86.9386 11.6595 86.0455 10.4968 85.4157C9.56372 84.4117 8.6309 83.4083 7.69785 82.4045C7.09908 81.1142 6.28101 79.9412 5.79676 78.5835C4.14068 73.9409 5.23366 69.3032 8.74742 66.343C10.4607 64.8996 12.3903 63.969 14.6516 63.712C16.1269 63.5443 17.0017 62.4325 16.636 61.2806C16.4114 60.5737 16.0638 59.9151 15.4721 59.3846C10.6317 55.0428 5.8085 50.6822 0.984897 46.3218C-0.28663 45.1725 -0.342675 43.8458 0.908251 42.6766C5.68778 38.2083 10.4928 33.7673 15.286 29.3139C16.0773 28.5786 17.0265 28.2437 18.0858 28.2085C20.4262 28.1307 21.9937 29.4346 22.5302 31.8848C23.411 35.9065 26.4166 37.991 30.3049 37.1001C34.3663 36.1697 37.0874 33.639 38.2841 29.6386C39.4081 25.8818 37.5537 22.676 33.7881 21.6067C33.6235 21.56 33.4585 21.5146 33.295 21.4641C30.18 20.5011 29.13 16.5445 31.5031 14.2832C36.3389 9.67562 41.2578 5.15505 46.1616 0.619202C47.2078 -0.348621 48.6102 -0.165424 49.5643 1.05294C52.624 4.95945 55.6528 8.89011 58.6987 12.8075C59.8329 14.2662 60.968 15.7249 62.1296 17.1617C62.6369 17.7893 63.3436 18.1029 64.1402 17.904C64.9689 17.6969 65.4465 17.0704 65.6527 16.2521C65.8115 15.6221 65.9212 14.9788 66.0968 14.3537C66.7331 12.092 68.0394 10.2768 69.971 8.97207C73.4367 6.63104 77.0885 6.71965 80.8322 8.27561C82.1653 8.82964 83.2611 9.7598 84.503 10.454" fill="#2B21DC"/>
<path fill-rule="evenodd" clip-rule="evenodd" d="M39.2854 45.8149L49.0122 56.2795C50.0471 57.3931 51.9046 56.908 52.2632 55.4311L55.3233 42.8343C55.6463 41.5043 54.5057 40.2771 53.1557 40.5022L40.3689 42.6345C38.8699 42.8844 38.2507 44.7018 39.2854 45.8149" fill="#FEFEFE"/>
</svg>
