<svg width="20" height="16" viewBox="0 0 20 16" fill="none" xmlns="http://www.w3.org/2000/svg">
<path fill-rule="evenodd" clip-rule="evenodd" d="M5.33333 2C5.33333 0.895431 6.22876 0 7.33333 0H12.6667C13.7712 0 14.6667 0.895431 14.6667 2V14C14.6667 15.1046 13.7712 16 12.6667 16H7.33333C6.22876 16 5.33333 15.1046 5.33333 14V2ZM16.6667 4C16.2985 4 16 4.29848 16 4.66667V11.3333C16 11.7015 16.2985 12 16.6667 12C17.0349 12 17.3333 11.7015 17.3333 11.3333V4.66667C17.3333 4.29848 17.0349 4 16.6667 4ZM18.6667 6C18.6667 5.63181 18.9651 5.33333 19.3333 5.33333C19.7015 5.33333 20 5.63181 20 6V10C20 10.3682 19.7015 10.6667 19.3333 10.6667C18.9651 10.6667 18.6667 10.3682 18.6667 10V6ZM3.33333 4C2.96514 4 2.66667 4.29848 2.66667 4.66667V11.3333C2.66667 11.7015 2.96514 12 3.33333 12C3.70152 12 4 11.7015 4 11.3333V4.66667C4 4.29848 3.70152 4 3.33333 4ZM0 6C0 5.63181 0.298477 5.33333 0.666667 5.33333C1.03486 5.33333 1.33333 5.63181 1.33333 6V10C1.33333 10.3682 1.03486 10.6667 0.666667 10.6667C0.298477 10.6667 0 10.3682 0 10V6Z" fill="#5A69F2"/>
</svg>
