<svg width="20" height="20" viewBox="0 0 20 20" fill="none" xmlns="http://www.w3.org/2000/svg">
<path fill-rule="evenodd" clip-rule="evenodd" d="M13.3333 0.740191V18.518C13.3331 18.8008 13.1719 19.0587 12.9179 19.1829C12.6638 19.3071 12.3612 19.2758 12.138 19.1022L5.6713 14.0735H1.48148C0.663282 14.0735 0 13.4102 0 12.592V6.66612C0 5.84792 0.663282 5.18464 1.48148 5.18464H5.6713L12.138 0.155931C12.3612 -0.0176257 12.6638 -0.0489309 12.9179 0.0752449C13.1719 0.199421 13.3331 0.457409 13.3333 0.740191ZM16.2963 6.66612C15.8872 6.66612 15.5556 6.99776 15.5556 7.40686V11.8513C15.5556 12.2604 15.8872 12.592 16.2963 12.592C16.7054 12.592 17.037 12.2604 17.037 11.8513V7.40686C17.037 6.99776 16.7054 6.66612 16.2963 6.66612ZM18.5185 5.92538C18.5185 5.51628 18.8502 5.18464 19.2593 5.18464C19.6684 5.18464 20 5.51628 20 5.92538V13.3328C20 13.7419 19.6684 14.0735 19.2593 14.0735C18.8502 14.0735 18.5185 13.7419 18.5185 13.3328V5.92538Z" fill="#5A69F2"/>
</svg>
